<?xml version="1.0" standalone="no"?>
<!DOCTYPE svg PUBLIC "-//W3C//DTD SVG 20010904//EN"
 "http://www.w3.org/TR/2001/REC-SVG-20010904/DTD/svg10.dtd">
<svg version="1.0" xmlns="http://www.w3.org/2000/svg"
 width="1875.000000pt" height="1874.000000pt" viewBox="0 0 1875.000000 1874.000000"
 preserveAspectRatio="xMidYMid meet">

<g transform="translate(0.000000,1874.000000) scale(0.100000,-0.100000)"
fill="#000000" stroke="none">
<path d="M3130 9370 l0 -7190 6245 0 6245 0 0 7190 0 7190 -6245 0 -6245 0 0
-7190z m12170 0 l0 -6880 -5925 0 -5925 0 0 6880 0 6880 5925 0 5925 0 0
-6880z"/>
<path d="M4420 14074 l0 -996 398 4 c348 4 403 7 447 22 74 26 145 60 145 68
0 5 7 8 15 8 26 0 158 141 188 200 81 156 87 206 87 690 0 494 -5 533 -85 694
-16 32 -35 61 -42 63 -7 3 -13 9 -13 14 0 15 -82 90 -135 124 -64 42 -132 69
-221 89 -59 13 -137 16 -428 16 l-356 0 0 -996z m740 762 c94 -23 170 -68 223
-132 39 -48 79 -144 88 -213 11 -86 11 -756 0 -842 -8 -64 -65 -199 -83 -199
-4 0 -8 -4 -8 -10 0 -13 -37 -50 -50 -50 -5 0 -10 -3 -10 -7 0 -12 -58 -44
-115 -65 -43 -16 -83 -18 -312 -18 l-263 0 0 775 0 775 238 0 c163 -1 254 -5
292 -14z"/>
<path d="M6630 14565 c-118 -24 -199 -64 -276 -139 -30 -29 -54 -58 -54 -64 0
-7 -3 -12 -7 -12 -9 0 -27 -35 -50 -95 -35 -91 -43 -176 -43 -440 0 -321 14
-411 82 -525 28 -47 82 -110 94 -110 4 0 12 -6 18 -14 16 -20 98 -63 164 -86
69 -24 250 -36 337 -22 182 30 339 142 400 287 15 37 54 170 55 188 0 4 -51 7
-114 7 l-114 0 -7 -32 c-7 -38 -47 -118 -57 -118 -5 0 -8 -4 -8 -10 0 -13 -37
-50 -50 -50 -5 0 -10 -3 -10 -8 0 -14 -96 -51 -157 -60 -169 -24 -316 46 -383
183 -22 44 -25 66 -28 183 l-4 132 466 0 466 0 0 161 c0 129 -4 179 -21 248
-11 47 -25 90 -30 96 -5 5 -9 15 -9 21 0 22 -62 108 -109 151 -129 118 -346
169 -551 128z m240 -206 c65 -14 109 -38 160 -89 68 -69 100 -151 100 -259 l0
-51 -356 0 -356 0 4 88 c3 65 10 99 27 135 43 88 121 149 221 175 83 21 106
21 200 1z"/>
<path d="M7010 11360 c-70 -8 -136 -21 -255 -50 -135 -33 -322 -121 -433 -202
-65 -48 -222 -200 -222 -216 0 -6 -4 -12 -8 -14 -19 -7 -93 -131 -124 -208
-81 -196 -91 -492 -23 -690 44 -128 161 -297 255 -367 27 -20 50 -41 50 -45 0
-4 5 -8 11 -8 6 0 28 -12 48 -27 20 -16 45 -33 56 -40 41 -25 166 -83 178 -83
7 0 17 -4 22 -9 17 -14 248 -89 395 -127 36 -9 85 -22 110 -29 43 -13 106 -29
233 -61 422 -104 605 -198 691 -354 29 -51 30 -236 1 -300 -39 -89 -164 -191
-290 -237 -137 -50 -410 -68 -575 -38 -269 49 -440 163 -534 355 -26 53 -56
182 -56 239 l0 51 -380 0 -380 0 0 -73 c0 -156 44 -346 112 -487 33 -68 68
-123 81 -128 4 -2 7 -8 7 -14 0 -28 161 -199 232 -245 21 -14 38 -30 38 -34 0
-5 5 -9 11 -9 6 0 25 -11 42 -24 35 -27 229 -126 246 -126 6 0 25 -6 43 -14
18 -7 58 -21 88 -29 240 -67 337 -80 630 -80 252 -1 347 8 500 45 25 6 61 14
80 18 43 10 131 41 220 77 58 24 152 74 198 104 24 16 45 29 46 29 5 0 57 44
119 100 107 97 219 278 266 430 81 266 62 568 -49 775 -75 140 -197 269 -347
367 -92 60 -220 128 -242 128 -6 0 -25 6 -43 14 -37 15 -104 36 -193 60 -108
28 -269 68 -305 76 -19 4 -55 13 -80 19 -25 7 -71 19 -102 27 -604 149 -727
230 -716 467 3 63 10 94 31 137 27 55 88 130 106 130 5 0 11 3 13 8 4 9 65 52
74 52 3 0 20 6 37 14 107 48 328 60 509 26 59 -10 115 -23 125 -28 10 -5 44
-21 76 -36 103 -47 203 -160 239 -271 9 -27 20 -80 23 -117 l7 -68 385 0 386
0 -6 88 c-10 155 -43 282 -105 412 -25 52 -48 97 -51 100 -4 3 -19 25 -36 48
-34 51 -170 192 -185 192 -5 0 -10 4 -10 9 0 4 -29 27 -65 50 -176 114 -347
178 -600 226 -103 20 -483 29 -605 15z"/>
<path d="M12070 10995 l0 -295 355 0 355 0 0 295 0 295 -355 0 -355 0 0 -295z"/>
<path d="M10155 10354 c-121 -22 -216 -51 -311 -95 -23 -10 -46 -19 -52 -19
-6 0 -12 -3 -14 -7 -1 -5 -21 -17 -43 -28 -47 -23 -99 -57 -103 -67 -2 -5 -7
-8 -12 -8 -27 0 -260 -233 -260 -261 0 -5 -4 -9 -9 -9 -5 0 -13 -9 -16 -20 -3
-11 -12 -26 -18 -32 -14 -14 -96 -181 -120 -243 -16 -40 -31 -93 -61 -210 -40
-158 -53 -431 -28 -595 46 -306 164 -553 352 -740 78 -78 147 -140 156 -140 1
0 22 -13 46 -29 92 -62 252 -131 383 -164 205 -53 546 -54 725 -2 25 7 56 15
70 18 80 16 335 140 348 170 2 4 7 7 12 7 26 0 230 204 230 231 0 5 4 9 9 9 5
0 13 9 16 20 3 11 12 26 19 32 11 12 77 143 96 193 7 18 15 44 54 180 8 28 17
76 21 108 l6 57 -343 -2 -343 -3 -11 -55 c-20 -98 -76 -231 -114 -270 -8 -8
-24 -26 -35 -40 -30 -38 -105 -94 -150 -113 -161 -68 -382 -62 -506 12 -19 11
-41 24 -49 28 -8 3 -42 34 -76 69 -134 136 -214 385 -214 659 0 119 24 290 54
385 50 163 171 326 287 389 91 49 145 61 270 61 135 0 220 -21 304 -74 51 -33
64 -44 101 -88 33 -39 94 -162 94 -190 0 -7 5 -30 11 -50 l10 -38 349 0 c327
0 350 1 350 18 0 35 -32 198 -46 230 -8 18 -14 39 -14 47 0 25 -88 183 -137
249 -164 218 -421 358 -768 420 -115 21 -406 20 -520 0z"/>
<path d="M12070 9010 l0 -1300 355 0 355 0 0 1300 0 1300 -355 0 -355 0 0
-1300z"/>
<path d="M9850 5770 c-30 -10 -71 -27 -90 -39 -19 -11 -42 -24 -50 -28 -22
-10 -160 -150 -200 -203 -19 -25 -36 -47 -38 -50 -3 -4 -82 77 -82 85 0 8
-131 135 -139 135 -5 0 -11 6 -14 13 -7 19 -115 69 -182 83 -113 25 -247 13
-346 -30 -67 -29 -147 -112 -186 -195 -35 -74 -36 -79 -37 -201 -1 -101 3
-135 19 -180 11 -30 26 -61 32 -68 7 -7 13 -17 13 -22 0 -12 99 -112 130 -131
81 -50 268 -67 347 -32 74 32 123 58 123 65 0 5 7 8 15 8 8 0 15 4 15 8 0 4
12 15 28 24 15 9 53 41 84 70 31 29 67 63 81 74 l24 21 102 -98 c56 -55 108
-99 116 -99 8 0 15 -3 15 -8 0 -9 77 -45 144 -66 92 -30 243 -14 356 37 54 25
131 87 173 142 142 185 136 436 -15 591 -96 99 -292 142 -438 94z m-905 -93
c57 -14 115 -43 115 -57 0 -6 5 -10 10 -10 6 0 19 -9 30 -20 11 -11 20 -24 20
-30 0 -5 4 -10 10 -10 5 0 21 -20 36 -45 14 -25 30 -45 35 -45 5 0 9 -5 9 -11
0 -6 19 -36 43 -67 24 -31 53 -73 65 -93 l22 -36 -22 -29 c-48 -60 -157 -153
-226 -192 -96 -54 -207 -60 -297 -17 -70 34 -116 80 -152 155 -22 45 -28 72
-31 147 -6 137 25 221 110 304 65 63 129 79 223 56z m1077 2 c63 -14 91 -30
136 -78 63 -68 91 -144 91 -251 0 -96 -44 -250 -71 -250 -4 0 -8 -4 -8 -10 0
-13 -37 -50 -50 -50 -5 0 -10 -4 -10 -10 0 -5 -26 -17 -57 -26 -53 -15 -63
-15 -130 -1 -45 10 -92 29 -125 50 -51 33 -138 110 -138 123 0 4 -6 12 -14 18
-7 6 -40 47 -73 91 l-60 80 34 45 c19 25 39 47 44 48 5 2 9 8 9 13 0 15 98
106 155 144 54 36 79 47 130 60 66 17 75 17 137 4z"/>
</g>
</svg>
