<?xml version="1.0" standalone="no"?>
<!DOCTYPE svg PUBLIC "-//W3C//DTD SVG 20010904//EN"
 "http://www.w3.org/TR/2001/REC-SVG-20010904/DTD/svg10.dtd">
<svg version="1.0" xmlns="http://www.w3.org/2000/svg"
 width="128.000000pt" height="128.000000pt" viewBox="0 0 128.000000 128.000000"
 preserveAspectRatio="xMidYMid meet">

<g transform="translate(0.000000,128.000000) scale(0.100000,-0.100000)"
fill="#000000" stroke="none">
<path d="M210 640 l0 -490 430 0 430 0 0 490 0 490 -430 0 -430 0 0 -490z
m840 0 l0 -470 -410 0 -410 0 0 463 c0 255 3 467 7 470 3 4 188 7 410 7 l403
0 0 -470z"/>
<path d="M300 960 l0 -70 29 0 c40 0 61 24 61 70 0 46 -21 70 -61 70 l-29 0 0
-70z m74 25 c11 -42 -3 -75 -30 -75 -22 0 -24 4 -24 50 0 46 2 50 24 50 17 0
26 -7 30 -25z"/>
<path d="M425 961 c-8 -35 9 -71 33 -71 23 0 48 17 39 26 -4 4 -12 3 -18 -3
-14 -14 -39 -6 -39 13 0 9 11 14 31 14 26 0 30 3 27 23 -2 17 -11 23 -35 25
-28 3 -32 0 -38 -27z m56 4 c0 -5 -9 -11 -21 -13 -20 -3 -27 8 -13 22 10 9 34
3 34 -9z"/>
<path d="M450 767 c-13 -7 -31 -24 -39 -39 -14 -25 -14 -29 5 -54 13 -18 41
-35 77 -47 57 -19 68 -32 45 -55 -20 -20 -57 -14 -82 13 -45 49 -79 15 -37
-36 16 -21 28 -24 81 -24 53 0 65 3 81 24 10 13 19 34 19 48 0 29 -41 73 -69
73 -33 0 -71 22 -71 42 0 14 8 18 34 18 21 0 36 -6 40 -15 6 -17 56 -21 56 -4
0 23 -21 47 -51 58 -41 14 -58 14 -89 -2z"/>
<path d="M822 753 c2 -10 13 -19 26 -21 17 -3 22 2 22 17 0 16 -6 21 -26 21
-19 0 -25 -5 -22 -17z"/>
<path d="M670 697 c-51 -26 -65 -98 -27 -142 31 -36 84 -43 120 -15 15 12 27
28 27 36 0 19 -34 18 -50 -1 -26 -31 -70 -11 -70 33 0 53 41 81 70 47 15 -18
50 -20 50 -2 0 20 -14 35 -43 46 -36 14 -46 14 -77 -2z"/>
<path d="M820 615 c0 -84 0 -85 25 -85 25 0 25 1 25 85 0 84 0 85 -25 85 -25
0 -25 -1 -25 -85z"/>
<path d="M691 383 c18 -30 -1 -54 -26 -33 -12 10 -13 16 -3 29 11 14 11 14 -4
3 -11 -9 -18 -10 -23 -2 -3 5 -11 10 -17 10 -6 0 3 -14 21 -31 34 -32 48 -33
65 -6 8 13 6 21 -8 34 -18 17 -18 17 -5 -4z"/>
<path d="M585 380 c-9 -15 4 -50 20 -50 8 0 16 4 19 9 3 5 -2 8 -12 7 -12 -1
-17 6 -16 22 1 24 -2 27 -11 12z"/>
</g>
</svg>
