<?xml version="1.0" standalone="no"?>
<!DOCTYPE svg PUBLIC "-//W3C//DTD SVG 20010904//EN"
 "http://www.w3.org/TR/2001/REC-SVG-20010904/DTD/svg10.dtd">
<svg version="1.0" xmlns="http://www.w3.org/2000/svg"
 width="256.000000pt" height="256.000000pt" viewBox="0 0 256.000000 256.000000"
 preserveAspectRatio="xMidYMid meet">

<g transform="translate(0.000000,256.000000) scale(0.100000,-0.100000)"
fill="#000000" stroke="none">
<path d="M430 1280 l0 -980 855 0 855 0 0 980 0 980 -855 0 -855 0 0 -980z
m1660 0 l0 -940 -810 0 -810 0 0 940 0 940 810 0 810 0 0 -940z"/>
<path d="M610 1925 l0 -135 60 0 c51 0 65 4 85 25 22 22 25 32 25 105 0 77 -2
83 -29 111 -26 25 -37 29 -85 29 l-56 0 0 -135z m120 85 c16 -16 20 -33 20
-89 0 -75 -11 -96 -55 -107 -56 -14 -60 -8 -63 109 l-3 107 41 0 c27 0 47 -7
60 -20z"/>
<path d="M870 1970 c-16 -16 -20 -33 -20 -84 0 -58 3 -67 26 -85 15 -12 39
-21 53 -21 30 0 71 32 71 55 0 22 -23 18 -38 -5 -24 -39 -82 -19 -82 27 0 21
4 23 59 23 33 0 63 5 66 10 10 16 -15 79 -35 90 -31 16 -78 12 -100 -10z m98
-37 c14 -23 14 -23 -37 -23 -35 0 -51 4 -51 13 0 41 63 47 88 10z"/>
<path d="M895 1531 c-53 -24 -76 -51 -82 -100 -12 -87 24 -131 131 -162 141
-41 171 -63 147 -108 -13 -24 -43 -34 -99 -33 -48 0 -92 31 -92 64 0 15 -8 18
-55 18 -51 0 -55 -2 -55 -24 0 -31 38 -85 78 -112 61 -41 196 -43 261 -3 90
55 95 184 9 237 -18 11 -71 30 -118 42 -100 25 -118 38 -104 77 19 54 122 56
152 2 15 -26 22 -29 70 -29 58 0 57 -2 32 65 -28 74 -179 110 -275 66z"/>
<path d="M1650 1500 l0 -40 50 0 50 0 0 40 0 40 -50 0 -50 0 0 -40z"/>
<path d="M1370 1407 c-20 -7 -45 -19 -56 -27 -98 -72 -87 -261 19 -317 45 -23
143 -22 184 2 32 19 73 80 73 109 0 12 -10 16 -44 16 -39 0 -45 -3 -56 -29
-25 -62 -116 -56 -139 9 -30 87 5 170 72 170 38 0 50 -7 66 -37 9 -19 20 -23
56 -23 52 0 58 14 25 68 -33 54 -131 83 -200 59z"/>
<path d="M1657 1404 c-4 -4 -7 -85 -7 -181 l0 -173 50 0 50 0 -2 178 -3 177
-40 3 c-23 2 -44 0 -48 -4z"/>
<path d="M1180 770 c-22 -22 -26 -51 -10 -81 13 -23 72 -26 90 -4 7 8 18 15
25 15 7 0 18 -7 25 -15 17 -21 73 -19 93 3 54 59 -23 136 -81 82 -12 -11 -24
-20 -28 -20 -3 0 -17 9 -31 20 -14 11 -34 20 -44 20 -11 0 -28 -9 -39 -20z
m83 -34 c16 -24 16 -26 -5 -41 -43 -29 -78 -13 -78 37 0 53 50 55 83 4z m118
34 c24 -13 26 -62 3 -81 -13 -11 -20 -11 -42 2 -36 20 -40 48 -11 70 29 22 26
22 50 9z"/>
</g>
</svg>
