<?xml version="1.0" standalone="no"?>
<!DOCTYPE svg PUBLIC "-//W3C//DTD SVG 20010904//EN"
 "http://www.w3.org/TR/2001/REC-SVG-20010904/DTD/svg10.dtd">
<svg version="1.0" xmlns="http://www.w3.org/2000/svg"
 width="512.000000pt" height="512.000000pt" viewBox="0 0 512.000000 512.000000"
 preserveAspectRatio="xMidYMid meet">

<g transform="translate(0.000000,512.000000) scale(0.100000,-0.100000)"
fill="#000000" stroke="none">
<path d="M860 2560 l0 -1970 1703 2 1702 3 0 1965 0 1965 -1702 3 -1703 2 0
-1970z m3320 0 l0 -1880 -1620 0 -1620 0 0 1880 0 1880 1620 0 1620 0 0 -1880z"/>
<path d="M1210 3845 l0 -275 93 0 c114 0 162 13 203 54 42 42 54 89 54 221 0
132 -12 179 -54 221 -41 41 -89 54 -203 54 l-93 0 0 -275z m225 200 c52 -26
60 -51 60 -206 l0 -139 -33 -32 c-30 -31 -37 -33 -112 -36 l-80 -4 0 216 0
216 66 0 c39 0 79 -6 99 -15z"/>
<path d="M1759 3957 c-18 -12 -39 -34 -46 -47 -17 -33 -17 -237 0 -270 22 -43
74 -70 134 -70 88 0 133 30 154 102 7 27 6 28 -24 28 -26 0 -35 -6 -47 -33
-30 -65 -138 -59 -166 9 -8 19 -14 45 -14 59 l0 25 131 0 132 0 -5 65 c-6 73
-24 107 -71 135 -46 29 -133 27 -178 -3z m129 -38 c19 -7 36 -23 47 -45 27
-57 18 -64 -84 -64 -50 0 -93 4 -96 10 -13 22 16 78 48 94 38 19 45 19 85 5z"/>
<path d="M1890 3099 c-64 -11 -143 -46 -185 -82 -17 -14 -44 -49 -60 -79 -25
-45 -29 -64 -30 -128 0 -63 4 -82 27 -120 47 -80 109 -114 315 -170 199 -56
233 -78 233 -154 0 -136 -305 -157 -379 -26 -11 21 -21 49 -21 64 l0 26 -106
0 -107 0 7 -57 c8 -67 47 -143 95 -185 19 -17 65 -45 101 -62 64 -30 68 -31
215 -31 133 0 156 3 206 23 114 46 186 138 196 252 9 92 -11 145 -76 211 -62
61 -80 68 -319 130 -151 39 -188 65 -179 129 6 45 22 65 71 85 66 28 179 12
227 -31 11 -10 25 -37 31 -61 l10 -43 105 0 105 0 -7 48 c-20 143 -127 237
-298 261 -88 12 -100 12 -177 0z"/>
<path d="M3300 3000 l0 -80 95 0 95 0 0 80 0 80 -95 0 -95 0 0 -80z"/>
<path d="M2711 2811 c-124 -46 -195 -140 -221 -294 -29 -162 48 -322 186 -392
55 -28 67 -30 169 -30 93 0 117 4 155 23 97 47 161 128 176 220 l7 43 -93 -3
-93 -3 -15 -43 c-20 -61 -67 -95 -137 -96 -46 0 -60 4 -92 30 -100 81 -94 318
9 394 25 18 46 24 85 24 64 0 100 -23 128 -82 l19 -42 94 0 94 0 -7 43 c-14
82 -71 154 -153 193 -78 38 -229 45 -311 15z"/>
<path d="M3300 2465 l0 -355 95 0 95 0 0 355 0 355 -95 0 -95 0 0 -355z"/>
<path d="M2383 1565 c-49 -21 -66 -55 -61 -122 4 -46 10 -61 33 -81 42 -36
116 -28 173 18 l41 33 36 -31 c42 -37 72 -46 127 -39 144 19 142 237 -2 237
-39 0 -77 -19 -114 -59 l-30 -31 -35 34 c-57 56 -107 68 -168 41z m81 -21 c24
-9 87 -100 81 -116 -8 -21 -86 -68 -111 -68 -13 0 -36 11 -51 24 -24 21 -28
32 -28 74 0 75 45 111 109 86z m315 -20 c40 -50 17 -141 -39 -159 -26 -8 -70
16 -109 60 -36 41 -33 57 21 99 45 36 99 35 127 0z"/>
</g>
</svg>
