<?xml version="1.0" standalone="no"?>
<!DOCTYPE svg PUBLIC "-//W3C//DTD SVG 20010904//EN"
 "http://www.w3.org/TR/2001/REC-SVG-20010904/DTD/svg10.dtd">
<svg version="1.0" xmlns="http://www.w3.org/2000/svg"
 width="64.000000pt" height="64.000000pt" viewBox="0 0 64.000000 64.000000"
 preserveAspectRatio="xMidYMid meet">

<g transform="translate(0.000000,64.000000) scale(0.100000,-0.100000)"
fill="#000000" stroke="none">
<path d="M112 318 l-2 -248 210 0 210 0 -2 248 -3 247 -2 -242 -3 -243 -200 0
-200 0 -3 243 -2 242 -3 -247z"/>
<path d="M154 506 c-3 -8 -4 -25 -1 -38 3 -17 5 -14 6 11 1 26 5 32 17 27 8
-3 12 -2 9 4 -9 14 -25 12 -31 -4z"/>
<path d="M217 494 c-11 -11 -8 -44 4 -44 5 0 7 5 4 10 -3 6 1 10 10 10 9 0 15
5 13 12 -5 14 -22 21 -31 12z"/>
<path d="M215 376 c-24 -18 -13 -45 25 -59 34 -13 40 -37 10 -37 -11 0 -20 5
-20 10 0 6 -7 10 -15 10 -18 0 -19 -12 -3 -28 17 -17 63 -15 78 3 19 23 7 49
-28 59 -17 5 -32 12 -32 17 0 15 21 21 35 9 23 -19 41 -7 21 13 -21 21 -46 22
-71 3z"/>
<path d="M418 373 c7 -3 16 -2 19 1 4 3 -2 6 -13 5 -11 0 -14 -3 -6 -6z"/>
<path d="M320 334 c-20 -24 -1 -68 31 -72 14 -2 31 4 39 13 18 21 7 29 -19 13
-18 -11 -23 -11 -30 1 -17 26 -1 43 33 35 27 -6 29 -5 17 10 -17 20 -55 21
-71 0z"/>
<path d="M410 304 c0 -59 24 -55 28 4 2 33 0 42 -12 42 -12 0 -16 -11 -16 -46z"/>
</g>
</svg>
